<?xml version="1.0" encoding="utf-8" standalone="no"?>
<!DOCTYPE svg PUBLIC "-//W3C//DTD SVG 1.1//EN"
  "http://www.w3.org/Graphics/SVG/1.1/DTD/svg11.dtd">
<svg xmlns:xlink="http://www.w3.org/1999/xlink" width="460.8pt" height="345.6pt" viewBox="0 0 460.8 345.6" xmlns="http://www.w3.org/2000/svg" version="1.1">
 <metadata>
  <rdf:RDF xmlns:dc="http://purl.org/dc/elements/1.1/" xmlns:cc="http://creativecommons.org/ns#" xmlns:rdf="http://www.w3.org/1999/02/22-rdf-syntax-ns#">
   <cc:Work>
    <dc:type rdf:resource="http://purl.org/dc/dcmitype/StillImage"/>
    <dc:date>2026-07-08T11:47:51.299669</dc:date>
    <dc:format>image/svg+xml</dc:format>
    <dc:creator>
     <cc:Agent>
      <dc:title>Matplotlib v3.7.5, https://matplotlib.org/</dc:title>
     </cc:Agent>
    </dc:creator>
   </cc:Work>
  </rdf:RDF>
 </metadata>
 <defs>
  <style type="text/css">*{stroke-linejoin: round; stroke-linecap: butt}</style>
 </defs>
 <g id="figure_1">
  <g id="patch_1">
   <path d="M 0 345.6 
L 460.8 345.6 
L 460.8 0 
L 0 0 
z
" style="fill: #ffffff"/>
  </g>
  <g id="axes_1">
   <g id="patch_2">
    <path d="M 57.6 307.584 
L 414.72 307.584 
L 414.72 41.472 
L 57.6 41.472 
z
" style="fill: #ffffff"/>
   </g>
   <g id="matplotlib.axis_1">
    <g id="xtick_1">
     <g id="line2d_1">
      <defs>
       <path id="m15aff6a9b6" d="M 0 0 
L 0 3.5 
" style="stroke: #000000; stroke-width: 0.8"/>
      </defs>
      <g>
       <use xlink:href="#m15aff6a9b6" x="73.832727" y="307.584" style="stroke: #000000; stroke-width: 0.8"/>
      </g>
     </g>
     <g id="text_1">
      <!-- 0 -->
      <g transform="translate(70.651477 322.182437) scale(0.1 -0.1)">
       <defs>
        <path id="DejaVuSans-30" d="M 2034 4250 
Q 1547 4250 1301 3770 
Q 1056 3291 1056 2328 
Q 1056 1369 1301 889 
Q 1547 409 2034 409 
Q 2525 409 2770 889 
Q 3016 1369 3016 2328 
Q 3016 3291 2770 3770 
Q 2525 4250 2034 4250 
z
M 2034 4750 
Q 2819 4750 3233 4129 
Q 3647 3509 3647 2328 
Q 3647 1150 3233 529 
Q 2819 -91 2034 -91 
Q 1250 -91 836 529 
Q 422 1150 422 2328 
Q 422 3509 836 4129 
Q 1250 4750 2034 4750 
z
" transform="scale(0.015625)"/>
       </defs>
       <use xlink:href="#DejaVuSans-30"/>
      </g>
     </g>
    </g>
    <g id="xtick_2">
     <g id="line2d_2">
      <g>
       <use xlink:href="#m15aff6a9b6" x="138.763636" y="307.584" style="stroke: #000000; stroke-width: 0.8"/>
      </g>
     </g>
     <g id="text_2">
      <!-- 2 -->
      <g transform="translate(135.582386 322.182437) scale(0.1 -0.1)">
       <defs>
        <path id="DejaVuSans-32" d="M 1228 531 
L 3431 531 
L 3431 0 
L 469 0 
L 469 531 
Q 828 903 1448 1529 
Q 2069 2156 2228 2338 
Q 2531 2678 2651 2914 
Q 2772 3150 2772 3378 
Q 2772 3750 2511 3984 
Q 2250 4219 1831 4219 
Q 1534 4219 1204 4116 
Q 875 4013 500 3803 
L 500 4441 
Q 881 4594 1212 4672 
Q 1544 4750 1819 4750 
Q 2544 4750 2975 4387 
Q 3406 4025 3406 3419 
Q 3406 3131 3298 2873 
Q 3191 2616 2906 2266 
Q 2828 2175 2409 1742 
Q 1991 1309 1228 531 
z
" transform="scale(0.015625)"/>
       </defs>
       <use xlink:href="#DejaVuSans-32"/>
      </g>
     </g>
    </g>
    <g id="xtick_3">
     <g id="line2d_3">
      <g>
       <use xlink:href="#m15aff6a9b6" x="203.694545" y="307.584" style="stroke: #000000; stroke-width: 0.8"/>
      </g>
     </g>
     <g id="text_3">
      <!-- 4 -->
      <g transform="translate(200.513295 322.182437) scale(0.1 -0.1)">
       <defs>
        <path id="DejaVuSans-34" d="M 2419 4116 
L 825 1625 
L 2419 1625 
L 2419 4116 
z
M 2253 4666 
L 3047 4666 
L 3047 1625 
L 3713 1625 
L 3713 1100 
L 3047 1100 
L 3047 0 
L 2419 0 
L 2419 1100 
L 313 1100 
L 313 1709 
L 2253 4666 
z
" transform="scale(0.015625)"/>
       </defs>
       <use xlink:href="#DejaVuSans-34"/>
      </g>
     </g>
    </g>
    <g id="xtick_4">
     <g id="line2d_4">
      <g>
       <use xlink:href="#m15aff6a9b6" x="268.625455" y="307.584" style="stroke: #000000; stroke-width: 0.8"/>
      </g>
     </g>
     <g id="text_4">
      <!-- 6 -->
      <g transform="translate(265.444205 322.182437) scale(0.1 -0.1)">
       <defs>
        <path id="DejaVuSans-36" d="M 2113 2584 
Q 1688 2584 1439 2293 
Q 1191 2003 1191 1497 
Q 1191 994 1439 701 
Q 1688 409 2113 409 
Q 2538 409 2786 701 
Q 3034 994 3034 1497 
Q 3034 2003 2786 2293 
Q 2538 2584 2113 2584 
z
M 3366 4563 
L 3366 3988 
Q 3128 4100 2886 4159 
Q 2644 4219 2406 4219 
Q 1781 4219 1451 3797 
Q 1122 3375 1075 2522 
Q 1259 2794 1537 2939 
Q 1816 3084 2150 3084 
Q 2853 3084 3261 2657 
Q 3669 2231 3669 1497 
Q 3669 778 3244 343 
Q 2819 -91 2113 -91 
Q 1303 -91 875 529 
Q 447 1150 447 2328 
Q 447 3434 972 4092 
Q 1497 4750 2381 4750 
Q 2619 4750 2861 4703 
Q 3103 4656 3366 4563 
z
" transform="scale(0.015625)"/>
       </defs>
       <use xlink:href="#DejaVuSans-36"/>
      </g>
     </g>
    </g>
    <g id="xtick_5">
     <g id="line2d_5">
      <g>
       <use xlink:href="#m15aff6a9b6" x="333.556364" y="307.584" style="stroke: #000000; stroke-width: 0.8"/>
      </g>
     </g>
     <g id="text_5">
      <!-- 8 -->
      <g transform="translate(330.375114 322.182437) scale(0.1 -0.1)">
       <defs>
        <path id="DejaVuSans-38" d="M 2034 2216 
Q 1584 2216 1326 1975 
Q 1069 1734 1069 1313 
Q 1069 891 1326 650 
Q 1584 409 2034 409 
Q 2484 409 2743 651 
Q 3003 894 3003 1313 
Q 3003 1734 2745 1975 
Q 2488 2216 2034 2216 
z
M 1403 2484 
Q 997 2584 770 2862 
Q 544 3141 544 3541 
Q 544 4100 942 4425 
Q 1341 4750 2034 4750 
Q 2731 4750 3128 4425 
Q 3525 4100 3525 3541 
Q 3525 3141 3298 2862 
Q 3072 2584 2669 2484 
Q 3125 2378 3379 2068 
Q 3634 1759 3634 1313 
Q 3634 634 3220 271 
Q 2806 -91 2034 -91 
Q 1263 -91 848 271 
Q 434 634 434 1313 
Q 434 1759 690 2068 
Q 947 2378 1403 2484 
z
M 1172 3481 
Q 1172 3119 1398 2916 
Q 1625 2713 2034 2713 
Q 2441 2713 2670 2916 
Q 2900 3119 2900 3481 
Q 2900 3844 2670 4047 
Q 2441 4250 2034 4250 
Q 1625 4250 1398 4047 
Q 1172 3844 1172 3481 
z
" transform="scale(0.015625)"/>
       </defs>
       <use xlink:href="#DejaVuSans-38"/>
      </g>
     </g>
    </g>
    <g id="xtick_6">
     <g id="line2d_6">
      <g>
       <use xlink:href="#m15aff6a9b6" x="398.487273" y="307.584" style="stroke: #000000; stroke-width: 0.8"/>
      </g>
     </g>
     <g id="text_6">
      <!-- 10 -->
      <g transform="translate(392.124773 322.182437) scale(0.1 -0.1)">
       <defs>
        <path id="DejaVuSans-31" d="M 794 531 
L 1825 531 
L 1825 4091 
L 703 3866 
L 703 4441 
L 1819 4666 
L 2450 4666 
L 2450 531 
L 3481 531 
L 3481 0 
L 794 0 
L 794 531 
z
" transform="scale(0.015625)"/>
       </defs>
       <use xlink:href="#DejaVuSans-31"/>
       <use xlink:href="#DejaVuSans-30" x="63.623047"/>
      </g>
     </g>
    </g>
   </g>
   <g id="matplotlib.axis_2">
    <g id="ytick_1">
     <g id="line2d_7">
      <defs>
       <path id="meb1cb9f858" d="M 0 0 
L -3.5 0 
" style="stroke: #000000; stroke-width: 0.8"/>
      </defs>
      <g>
       <use xlink:href="#meb1cb9f858" x="57.6" y="295.488" style="stroke: #000000; stroke-width: 0.8"/>
      </g>
     </g>
     <g id="text_7">
      <!-- 0.0 -->
      <g transform="translate(34.696875 299.287219) scale(0.1 -0.1)">
       <defs>
        <path id="DejaVuSans-2e" d="M 684 794 
L 1344 794 
L 1344 0 
L 684 0 
L 684 794 
z
" transform="scale(0.015625)"/>
       </defs>
       <use xlink:href="#DejaVuSans-30"/>
       <use xlink:href="#DejaVuSans-2e" x="63.623047"/>
       <use xlink:href="#DejaVuSans-30" x="95.410156"/>
      </g>
     </g>
    </g>
    <g id="ytick_2">
     <g id="line2d_8">
      <g>
       <use xlink:href="#meb1cb9f858" x="57.6" y="247.104" style="stroke: #000000; stroke-width: 0.8"/>
      </g>
     </g>
     <g id="text_8">
      <!-- 0.2 -->
      <g transform="translate(34.696875 250.903219) scale(0.1 -0.1)">
       <use xlink:href="#DejaVuSans-30"/>
       <use xlink:href="#DejaVuSans-2e" x="63.623047"/>
       <use xlink:href="#DejaVuSans-32" x="95.410156"/>
      </g>
     </g>
    </g>
    <g id="ytick_3">
     <g id="line2d_9">
      <g>
       <use xlink:href="#meb1cb9f858" x="57.6" y="198.72" style="stroke: #000000; stroke-width: 0.8"/>
      </g>
     </g>
     <g id="text_9">
      <!-- 0.4 -->
      <g transform="translate(34.696875 202.519219) scale(0.1 -0.1)">
       <use xlink:href="#DejaVuSans-30"/>
       <use xlink:href="#DejaVuSans-2e" x="63.623047"/>
       <use xlink:href="#DejaVuSans-34" x="95.410156"/>
      </g>
     </g>
    </g>
    <g id="ytick_4">
     <g id="line2d_10">
      <g>
       <use xlink:href="#meb1cb9f858" x="57.6" y="150.336" style="stroke: #000000; stroke-width: 0.8"/>
      </g>
     </g>
     <g id="text_10">
      <!-- 0.6 -->
      <g transform="translate(34.696875 154.135219) scale(0.1 -0.1)">
       <use xlink:href="#DejaVuSans-30"/>
       <use xlink:href="#DejaVuSans-2e" x="63.623047"/>
       <use xlink:href="#DejaVuSans-36" x="95.410156"/>
      </g>
     </g>
    </g>
    <g id="ytick_5">
     <g id="line2d_11">
      <g>
       <use xlink:href="#meb1cb9f858" x="57.6" y="101.952" style="stroke: #000000; stroke-width: 0.8"/>
      </g>
     </g>
     <g id="text_11">
      <!-- 0.8 -->
      <g transform="translate(34.696875 105.751219) scale(0.1 -0.1)">
       <use xlink:href="#DejaVuSans-30"/>
       <use xlink:href="#DejaVuSans-2e" x="63.623047"/>
       <use xlink:href="#DejaVuSans-38" x="95.410156"/>
      </g>
     </g>
    </g>
    <g id="ytick_6">
     <g id="line2d_12">
      <g>
       <use xlink:href="#meb1cb9f858" x="57.6" y="53.568" style="stroke: #000000; stroke-width: 0.8"/>
      </g>
     </g>
     <g id="text_12">
      <!-- 1.0 -->
      <g transform="translate(34.696875 57.367219) scale(0.1 -0.1)">
       <use xlink:href="#DejaVuSans-31"/>
       <use xlink:href="#DejaVuSans-2e" x="63.623047"/>
       <use xlink:href="#DejaVuSans-30" x="95.410156"/>
      </g>
     </g>
    </g>
   </g>
   <g id="line2d_13">
    <path d="M 73.832727 92.003424 
L 106.298182 96.570043 
L 138.763636 148.856554 
L 171.229091 233.157831 
L 203.694545 275.00639 
L 236.16 285.945845 
L 268.625455 282.531177 
L 301.090909 281.16684 
L 333.556364 163.41919 
L 366.021818 53.568 
L 398.487273 53.568 
" clip-path="url(#p458f8a1ca7)" style="fill: none; stroke: #ff0000; stroke-opacity: 0.5; stroke-linecap: square"/>
   </g>
   <g id="line2d_14">
    <defs>
     <path id="m237ad25573" d="M 0 1.5 
C 0.397805 1.5 0.77937 1.341951 1.06066 1.06066 
C 1.341951 0.77937 1.5 0.397805 1.5 0 
C 1.5 -0.397805 1.341951 -0.77937 1.06066 -1.06066 
C 0.77937 -1.341951 0.397805 -1.5 0 -1.5 
C -0.397805 -1.5 -0.77937 -1.341951 -1.06066 -1.06066 
C -1.341951 -0.77937 -1.5 -0.397805 -1.5 0 
C -1.5 0.397805 -1.341951 0.77937 -1.06066 1.06066 
C -0.77937 1.341951 -0.397805 1.5 0 1.5 
z
" style="stroke: #ff0000"/>
    </defs>
    <g clip-path="url(#p458f8a1ca7)">
     <use xlink:href="#m237ad25573" x="73.832727" y="90.44313" style="fill: #ff0000; stroke: #ff0000"/>
     <use xlink:href="#m237ad25573" x="106.298182" y="95.560521" style="fill: #ff0000; stroke: #ff0000"/>
     <use xlink:href="#m237ad25573" x="138.763636" y="159.610516" style="fill: #ff0000; stroke: #ff0000"/>
     <use xlink:href="#m237ad25573" x="171.229091" y="249.663191" style="fill: #ff0000; stroke: #ff0000"/>
     <use xlink:href="#m237ad25573" x="203.694545" y="272.265923" style="fill: #ff0000; stroke: #ff0000"/>
     <use xlink:href="#m237ad25573" x="236.16" y="279.62624" style="fill: #ff0000; stroke: #ff0000"/>
     <use xlink:href="#m237ad25573" x="268.625455" y="282.48233" style="fill: #ff0000; stroke: #ff0000"/>
     <use xlink:href="#m237ad25573" x="301.090909" y="235.357108" style="fill: #ff0000; stroke: #ff0000"/>
     <use xlink:href="#m237ad25573" x="333.556364" y="180.171225" style="fill: #ff0000; stroke: #ff0000"/>
     <use xlink:href="#m237ad25573" x="366.021818" y="106.676927" style="fill: #ff0000; stroke: #ff0000"/>
     <use xlink:href="#m237ad25573" x="398.487273" y="95.920857" style="fill: #ff0000; stroke: #ff0000"/>
    </g>
   </g>
   <g id="line2d_15">
    <path d="M 73.832727 292.829608 
L 106.298182 278.739702 
L 138.763636 226.868735 
L 171.229091 153.301769 
L 203.694545 126.365656 
L 236.16 138.608582 
L 268.625455 167.77218 
L 301.090909 208.068033 
L 333.556364 270.148164 
L 366.021818 295.488 
L 398.487273 295.488 
" clip-path="url(#p458f8a1ca7)" style="fill: none; stroke: #0000ff; stroke-opacity: 0.5; stroke-linecap: square"/>
   </g>
   <g id="line2d_16">
    <defs>
     <path id="m61f5003409" d="M 0 3 
C 0.795609 3 1.55874 2.683901 2.12132 2.12132 
C 2.683901 1.55874 3 0.795609 3 0 
C 3 -0.795609 2.683901 -1.55874 2.12132 -2.12132 
C 1.55874 -2.683901 0.795609 -3 0 -3 
C -0.795609 -3 -1.55874 -2.683901 -2.12132 -2.12132 
C -2.683901 -1.55874 -3 -0.795609 -3 0 
C -3 0.795609 -2.683901 1.55874 -2.12132 2.12132 
C -1.55874 2.683901 -0.795609 3 0 3 
z
" style="stroke: #0000ff"/>
    </defs>
    <g clip-path="url(#p458f8a1ca7)">
     <use xlink:href="#m61f5003409" x="73.832727" y="294.770269" style="fill: #0000ff; stroke: #0000ff"/>
     <use xlink:href="#m61f5003409" x="106.298182" y="288.473693" style="fill: #0000ff; stroke: #0000ff"/>
     <use xlink:href="#m61f5003409" x="138.763636" y="237.361994" style="fill: #0000ff; stroke: #0000ff"/>
     <use xlink:href="#m61f5003409" x="171.229091" y="129.504463" style="fill: #0000ff; stroke: #0000ff"/>
     <use xlink:href="#m61f5003409" x="203.694545" y="127.532029" style="fill: #0000ff; stroke: #0000ff"/>
     <use xlink:href="#m61f5003409" x="236.16" y="149.262235" style="fill: #0000ff; stroke: #0000ff"/>
     <use xlink:href="#m61f5003409" x="268.625455" y="188.942789" style="fill: #0000ff; stroke: #0000ff"/>
     <use xlink:href="#m61f5003409" x="301.090909" y="223.214418" style="fill: #0000ff; stroke: #0000ff"/>
     <use xlink:href="#m61f5003409" x="333.556364" y="256.715166" style="fill: #0000ff; stroke: #0000ff"/>
     <use xlink:href="#m61f5003409" x="366.021818" y="280.513782" style="fill: #0000ff; stroke: #0000ff"/>
     <use xlink:href="#m61f5003409" x="398.487273" y="288.703956" style="fill: #0000ff; stroke: #0000ff"/>
    </g>
   </g>
   <g id="line2d_17">
    <path d="M 73.832727 295.459761 
L 106.298182 295.266894 
L 138.763636 293.538914 
L 171.229091 285.845045 
L 203.694545 268.788144 
L 236.16 244.640746 
L 268.625455 229.317706 
L 301.090909 181.739213 
L 333.556364 236.556075 
L 366.021818 295.488 
L 398.487273 295.488 
" clip-path="url(#p458f8a1ca7)" style="fill: none; stroke: #008000; stroke-opacity: 0.5; stroke-linecap: square"/>
   </g>
   <g id="line2d_18">
    <defs>
     <path id="m75847efc79" d="M -0 3 
L 3 -3 
L -3 -3 
z
" style="stroke: #008000; stroke-linejoin: miter"/>
    </defs>
    <g clip-path="url(#p458f8a1ca7)">
     <use xlink:href="#m75847efc79" x="73.832727" y="295.26297" style="fill: #008000; stroke: #008000; stroke-linejoin: miter"/>
     <use xlink:href="#m75847efc79" x="106.298182" y="295.33075" style="fill: #008000; stroke: #008000; stroke-linejoin: miter"/>
     <use xlink:href="#m75847efc79" x="138.763636" y="295.39437" style="fill: #008000; stroke: #008000; stroke-linejoin: miter"/>
     <use xlink:href="#m75847efc79" x="171.229091" y="292.906247" style="fill: #008000; stroke: #008000; stroke-linejoin: miter"/>
     <use xlink:href="#m75847efc79" x="203.694545" y="264.548739" style="fill: #008000; stroke: #008000; stroke-linejoin: miter"/>
     <use xlink:href="#m75847efc79" x="236.16" y="241.301149" style="fill: #008000; stroke: #008000; stroke-linejoin: miter"/>
     <use xlink:href="#m75847efc79" x="268.625455" y="231.617119" style="fill: #008000; stroke: #008000; stroke-linejoin: miter"/>
     <use xlink:href="#m75847efc79" x="301.090909" y="219.483035" style="fill: #008000; stroke: #008000; stroke-linejoin: miter"/>
     <use xlink:href="#m75847efc79" x="333.556364" y="246.401199" style="fill: #008000; stroke: #008000; stroke-linejoin: miter"/>
     <use xlink:href="#m75847efc79" x="366.021818" y="272.009825" style="fill: #008000; stroke: #008000; stroke-linejoin: miter"/>
     <use xlink:href="#m75847efc79" x="398.487273" y="279.661945" style="fill: #008000; stroke: #008000; stroke-linejoin: miter"/>
    </g>
   </g>
   <g id="line2d_19">
    <path d="M 73.832727 260.71453 
L 106.298182 274.980558 
L 138.763636 287.740761 
L 171.229091 293.78518 
L 203.694545 295.143858 
L 236.16 295.335183 
L 268.625455 295.045185 
L 301.090909 295.311671 
L 333.556364 293.509718 
L 366.021818 295.488 
L 398.487273 295.488 
" clip-path="url(#p458f8a1ca7)" style="fill: none; stroke: #ffff00; stroke-opacity: 0.5; stroke-linecap: square"/>
   </g>
   <g id="line2d_20">
    <defs>
     <path id="m10bd402daa" d="M 0 -3 
L -3 3 
L 3 3 
z
" style="stroke: #ffff00; stroke-linejoin: miter"/>
    </defs>
    <g clip-path="url(#p458f8a1ca7)">
     <use xlink:href="#m10bd402daa" x="73.832727" y="260.202594" style="fill: #ffff00; stroke: #ffff00; stroke-linejoin: miter"/>
     <use xlink:href="#m10bd402daa" x="106.298182" y="265.433419" style="fill: #ffff00; stroke: #ffff00; stroke-linejoin: miter"/>
     <use xlink:href="#m10bd402daa" x="138.763636" y="273.013277" style="fill: #ffff00; stroke: #ffff00; stroke-linejoin: miter"/>
     <use xlink:href="#m10bd402daa" x="171.229091" y="287.901876" style="fill: #ffff00; stroke: #ffff00; stroke-linejoin: miter"/>
     <use xlink:href="#m10bd402daa" x="203.694545" y="291.643673" style="fill: #ffff00; stroke: #ffff00; stroke-linejoin: miter"/>
     <use xlink:href="#m10bd402daa" x="236.16" y="294.504577" style="fill: #ffff00; stroke: #ffff00; stroke-linejoin: miter"/>
     <use xlink:href="#m10bd402daa" x="268.625455" y="294.45769" style="fill: #ffff00; stroke: #ffff00; stroke-linejoin: miter"/>
     <use xlink:href="#m10bd402daa" x="301.090909" y="294.222992" style="fill: #ffff00; stroke: #ffff00; stroke-linejoin: miter"/>
     <use xlink:href="#m10bd402daa" x="333.556364" y="290.24968" style="fill: #ffff00; stroke: #ffff00; stroke-linejoin: miter"/>
     <use xlink:href="#m10bd402daa" x="366.021818" y="294.00755" style="fill: #ffff00; stroke: #ffff00; stroke-linejoin: miter"/>
     <use xlink:href="#m10bd402daa" x="398.487273" y="286.499974" style="fill: #ffff00; stroke: #ffff00; stroke-linejoin: miter"/>
    </g>
   </g>
   <g id="line2d_21">
    <path d="M 73.832727 293.429589 
L 106.298182 287.267874 
L 138.763636 273.840874 
L 171.229091 265.411172 
L 203.694545 268.284269 
L 236.16 270.297059 
L 268.625455 260.670047 
L 301.090909 269.196607 
L 333.556364 271.883709 
L 366.021818 295.488 
L 398.487273 295.488 
" clip-path="url(#p458f8a1ca7)" style="fill: none; stroke: #000000; stroke-opacity: 0.5; stroke-linecap: square"/>
   </g>
   <g id="line2d_22">
    <defs>
     <path id="m8ab0287585" d="M -3 -0 
L 3 3 
L 3 -3 
z
" style="stroke: #000000; stroke-linejoin: miter"/>
    </defs>
    <g clip-path="url(#p458f8a1ca7)">
     <use xlink:href="#m8ab0287585" x="73.832727" y="294.841037" style="stroke: #000000; stroke-linejoin: miter"/>
     <use xlink:href="#m8ab0287585" x="106.298182" y="290.721616" style="stroke: #000000; stroke-linejoin: miter"/>
     <use xlink:href="#m8ab0287585" x="138.763636" y="270.139844" style="stroke: #000000; stroke-linejoin: miter"/>
     <use xlink:href="#m8ab0287585" x="171.229091" y="275.544223" style="stroke: #000000; stroke-linejoin: miter"/>
     <use xlink:href="#m8ab0287585" x="203.694545" y="279.529636" style="stroke: #000000; stroke-linejoin: miter"/>
     <use xlink:href="#m8ab0287585" x="236.16" y="270.825799" style="stroke: #000000; stroke-linejoin: miter"/>
     <use xlink:href="#m8ab0287585" x="268.625455" y="238.020072" style="stroke: #000000; stroke-linejoin: miter"/>
     <use xlink:href="#m8ab0287585" x="301.090909" y="263.242447" style="stroke: #000000; stroke-linejoin: miter"/>
     <use xlink:href="#m8ab0287585" x="333.556364" y="261.982731" style="stroke: #000000; stroke-linejoin: miter"/>
     <use xlink:href="#m8ab0287585" x="366.021818" y="282.311916" style="stroke: #000000; stroke-linejoin: miter"/>
     <use xlink:href="#m8ab0287585" x="398.487273" y="284.733269" style="stroke: #000000; stroke-linejoin: miter"/>
    </g>
   </g>
   <g id="patch_3">
    <path d="M 57.6 307.584 
L 57.6 41.472 
" style="fill: none; stroke: #000000; stroke-width: 0.8; stroke-linejoin: miter; stroke-linecap: square"/>
   </g>
   <g id="patch_4">
    <path d="M 414.72 307.584 
L 414.72 41.472 
" style="fill: none; stroke: #000000; stroke-width: 0.8; stroke-linejoin: miter; stroke-linecap: square"/>
   </g>
   <g id="patch_5">
    <path d="M 57.6 307.584 
L 414.72 307.584 
" style="fill: none; stroke: #000000; stroke-width: 0.8; stroke-linejoin: miter; stroke-linecap: square"/>
   </g>
   <g id="patch_6">
    <path d="M 57.6 41.472 
L 414.72 41.472 
" style="fill: none; stroke: #000000; stroke-width: 0.8; stroke-linejoin: miter; stroke-linecap: square"/>
   </g>
  </g>
 </g>
 <defs>
  <clipPath id="p458f8a1ca7">
   <rect x="57.6" y="41.472" width="357.12" height="266.112"/>
  </clipPath>
 </defs>
</svg>
